<svg id="Layer_1" fill="currentColor" xmlns="http://www.w3.org/2000/svg" version="1.1" viewBox="0 0 602.3 120">
  <!-- Generator: Adobe Illustrator 30.1.0, SVG Export Plug-In . SVG Version: 2.1.1 Build 136)  -->
  <polygon points="82.3 .3 66.9 1.9 67.5 52.3 117.8 52.9 119.5 37.4 87.6 32.1 82.3 .3"/>
  <polygon points="1.6 67.1 0 82.6 31.8 87.9 37.2 119.7 52.6 118.1 52 67.7 1.6 67.1"/>
  <polygon points="67.5 67.7 66.9 118.1 82.3 119.7 87.6 87.9 119.5 82.6 117.8 67.1 67.5 67.7"/>
  <polygon points="31.8 32.1 0 37.4 1.6 52.9 52 52.3 52.6 1.9 37.2 .3 31.8 32.1"/>
  <path d="M595.1,36.2c-10.5,0-18.8,4.7-23.6,16.3v-15.8h-17v81.5h17v-36.9c0-24.9,13.8-29.6,24.1-29.6h6.6v-15.5h-7.1Z"/>
  <path d="M524.7,48.6s-5.8-13.6-26.4-13.6-35.4,16.4-35.4,42.5,14.8,42.5,35.7,42.5,21.6-5.8,26.1-13.6v11.8h17V2.7h-17v45.9ZM502.8,105.6c-14.3,0-22.6-12-22.6-28.6s8.1-28.6,22.6-28.6,22.8,12.5,22.8,28.6-8.5,28.6-22.8,28.6Z"/>
  <path d="M426.2,34.8c-11.8,0-20.8,5.5-25.1,13.5l-.3-11.6h-17v81.3h17v-45.7c0-15.6,11.6-24.4,20.6-24.4s17.8,4.5,17.8,23.1v47h16.8v-49c0-25.9-18-34.2-29.8-34.2Z"/>
  <path d="M377.7,78c0-26.4-14.5-42.9-38.9-42.9s-39.9,17-39.9,42.2,23.1,42.2,40.6,42.2,33.2-8.3,36.9-27.4h-17c-3,11.2-6.8,14-20.6,14s-21.4-9.8-22.1-23.3h61v-4.8ZM316.2,70.5c1.2-13,9.8-21.8,22.6-21.8s20.7,8.5,21.9,21.8h-44.5Z"/>
  <path d="M277.9,94.1v-43.9h21.9v-13.5h-21.9V13.6h-16.8v23.1h-14v13.5h14v47h0c0,13.5,8,21,19.6,21h19.3v-13.8h-13c-6.6,0-9.1-3-9.1-10.3Z"/>
  <path d="M205.9,48.6c-14.9-3.2-31.4-8.2-31.4-17.5s11.3-16.3,26.1-16.3,25.1,6.1,27.4,20.1h18C243.4,10.3,225.8.2,201,0c-26.9,0-44.7,12.7-44.7,32s16.5,25.6,37.6,30.1c19.6,4.3,37.1,10.5,37.1,22.6s-10,20.6-27.8,20.6-29.9-9.1-31.9-24.4h-19.3c0,0-.2,0-.2,0,2,24.8,22.5,39.1,51.4,39.1s46.2-16.3,46.2-36.9-12.1-28-43.5-34.6Z"/>
</svg>