<svg xmlns="http://www.w3.org/2000/svg" viewBox="0 0 128 128" width="128" height="128">
  <rect width="128" height="128" rx="24" fill="#141414"/>
  <path fill="#EFEBE1" d="M 49.730197736027634,113.99999999999993 C 45.63597775116075,113.99999999999993 41.627408869023284,112.33404684437369 38.73233410024602,109.42612788427279 L 18.561027924403504,89.25482170843026 C 15.665953155626244,86.37687914539073 14.000000000000009,82.36831026325328 14.000000000000007,78.2698121899316 L 14.000000000000007,49.730197736027634 C 14.000000000000007,45.63597775116075 15.665953155626244,41.627408869023284 18.573872115727163,38.73233410024602 L 38.74517829156968,18.5610279244035 C 41.6231208546092,15.665953155626243 45.631689736746665,14.000000000000007 49.73018781006834,14.000000000000007 L 78.26980226397231,14.000000000000007 C 82.36402224883918,14.000000000000007 86.37259113097666,15.665953155626244 89.26766589975391,18.573872115727163 L 109.43897207559644,38.74517829156969 C 112.33404684437369,41.6231208546092 113.99999999999993,45.631689736746665 113.99999999999993,49.730187810068344 L 113.99999999999993,78.26980226397231 C 113.99999999999993,82.36402224883918 112.33404684437369,86.37259113097666 109.42612788427277,89.26766589975391 L 89.25482170843026,109.43897207559642 C 86.37687914539073,112.33404684437367 82.36831026325326,113.99999999999991 78.2698121899316,113.99999999999993 C 78.2698121899316,113.99999999999993 49.73019773602763,113.99999999999993 49.73018781006832,113.99999999999993 L 49.730197736027634,113.99999999999994 M 64.00000496297962,53.824407794935226 C 58.23126571961763,53.824407794935226 53.537478089685585,58.51819542486727 53.537478089685585,64.28693466822926 C 53.537478089685585,70.05995200004605 58.23126571961763,74.75374955593738 64.00000496297962,74.75374955593738 C 69.76874420634161,74.75374955593738 74.46253183627366,70.05996192600533 74.46253183627366,64.28693466822926 C 74.46253183627366,58.51819542486727 69.76874420634161,53.82440779493524 64.00000496297962,53.82440779493524"/>
</svg>
